<svg xmlns="http://www.w3.org/2000/svg" viewBox="0 0 64 64">
  <defs>
    <linearGradient id="bg" x1="0%" y1="0%" x2="100%" y2="100%">
      <stop offset="0%" stop-color="#fbe8da"/>
      <stop offset="100%" stop-color="#f4c6a6"/>
    </linearGradient>
  </defs>
  <rect width="64" height="64" rx="16" fill="url(#bg)"/>
  <circle cx="32" cy="16" r="7" fill="#7b4a39"/>
  <path d="M19 29c0-10 6-16 13-16s13 6 13 16v12H19z" fill="#7b4a39"/>
  <path d="M24 27c1-3 4-5 8-5s7 2 8 5v6c0 5-4 10-8 10s-8-5-8-10z" fill="#f5d6c2"/>
  <path d="M22 33c0-2 1-4 2-5v8c-1-1-2-2-2-3z" fill="#f5d6c2"/>
  <path d="M42 33c0-2-1-4-2-5v8c1-1 2-2 2-3z" fill="#f5d6c2"/>
  <path d="M24 26c2-8 8-11 14-11 4 0 7 2 8 7-1-2-3-4-5-5-4-2-10 0-13 4-2 2-3 4-4 7z" fill="#7b4a39"/>
  <path d="M21 53c2-7 8-11 11-11s9 4 11 11z" fill="#d97874"/>
  <path d="M27 31c1-1 3-1 4 0" fill="none" stroke="#6b3c2f" stroke-linecap="round" stroke-width="1.4"/>
  <path d="M35 31c1.2-1.3 4-1.3 5.2 0" fill="none" stroke="#6b3c2f" stroke-linecap="round" stroke-width="1.4"/>
  <path d="M26 35c1.4 1.6 3.6 1.6 5 0" fill="none" stroke="#6b3c2f" stroke-linecap="round" stroke-width="1.8"/>
  <ellipse cx="39.5" cy="34.5" rx="2.5" ry="3.1" fill="#4c2b24"/>
  <circle cx="40.5" cy="33.8" r="0.8" fill="#fff8f5"/>
  <path d="M28 40c1.8 2 6.2 2 8 0v2.2c-1.1 1.6-2.9 2.5-4 2.5s-2.9-.9-4-2.5z" fill="#8f2f2b"/>
  <path d="M29 41.8h6c-.8 1.1-2 1.8-3 1.8s-2.2-.7-3-1.8z" fill="#fff7f5"/>
  <rect x="20.5" y="51" width="23" height="7.5" rx="3.75" fill="#6f4a35"/>
  <text x="32" y="56.2" fill="#fff8f2" font-family="Arial, sans-serif" font-size="4.8" font-weight="700" text-anchor="middle">B</text>
</svg>
